<svg width="812" height="338" viewBox="0 0 812 338" fill="none" xmlns="http://www.w3.org/2000/svg">
<path fill-rule="evenodd" clip-rule="evenodd" d="M810.797 338H1.57202e-05V174C-0.00418157 162.242 1.21456 150.494 3.63774 138.953C8.33223 116.689 17.499 95.5403 30.6145 76.7151C50.0713 48.741 77.4674 26.843 109.484 13.6741C120.329 9.22485 131.6 5.82861 143.134 3.53491C155.024 1.18164 167.127 -0.00268555 179.262 0H810.797V338V338Z" fill="#AFAAC1"/>
<path fill-rule="evenodd" clip-rule="evenodd" d="M811.827 338H16.4838V174C16.4784 163.21 17.5977 152.407 19.8248 141.795C24.1406 121.314 32.5717 101.86 44.6361 84.543C62.5279 58.8184 87.7216 38.6821 117.165 26.574C127.136 22.4829 137.501 19.3599 148.106 17.251C159.037 15.0874 170.165 13.998 181.322 14H811.827V338V338Z" fill="black"/>
<path fill-rule="evenodd" clip-rule="evenodd" d="M810.797 338H79.3283V168C79.2971 148.873 85.1826 130.175 96.2229 114.328C106.956 98.8936 122.07 86.811 139.733 79.5442C151.912 74.541 165.006 71.9753 178.231 72.0002H810.797V338V338Z" fill="#1E1E1E"/>
<path fill-rule="evenodd" clip-rule="evenodd" d="M791.016 133H344.099C315.65 133 292.587 110.614 292.587 83C292.587 55.3857 315.65 33 344.099 33H791.016C797.806 32.9883 804.53 34.2871 810.797 36.821V129.179C804.53 131.713 797.806 133.012 791.016 133H791.016Z" fill="black"/>
<path fill-rule="evenodd" clip-rule="evenodd" d="M510.998 86C510.998 83.5147 511.903 81.3934 513.714 79.636C515.524 77.8787 517.71 77 520.27 77H620.203C622.763 77 624.949 77.8787 626.759 79.636C628.57 81.3934 629.475 83.5147 629.475 86C629.475 88.4853 628.57 90.6066 626.759 92.364C624.949 94.1213 622.763 95 620.203 95H520.27C517.71 95 515.524 94.1213 513.714 92.364C511.903 90.6066 510.998 88.4853 510.998 86V86Z" fill="#2B2B29"/>
<ellipse cx="676.866" cy="86" rx="17.514" ry="17" fill="#171717"/>
<ellipse cx="676.866" cy="86" rx="16.4838" ry="16" stroke="#2B2B29" stroke-width="2"/>
<ellipse cx="676.866" cy="86" rx="6.18143" ry="6" fill="#232A5E"/>
<path fill-rule="evenodd" clip-rule="evenodd" d="M804.616 303H128.78C119.676 303 112.296 295.837 112.296 287V245C112.296 236.163 119.676 229 128.78 229H804.616C807.115 228.993 809.582 229.543 811.827 230.608V301.391C809.582 302.456 807.115 303.007 804.616 303V303Z" fill="#323234"/>
<path d="M623.169 276.154L628.928 259.509H631.133L623.306 280.974C623.146 281.395 622.941 281.862 622.69 282.375C622.451 282.888 622.132 283.378 621.733 283.845C621.346 284.323 620.856 284.711 620.264 285.007C619.683 285.314 618.971 285.468 618.127 285.468C617.911 285.468 617.632 285.44 617.29 285.383C616.96 285.337 616.72 285.292 616.572 285.246L616.555 283.52C616.681 283.554 616.863 283.583 617.102 283.605C617.341 283.628 617.507 283.64 617.598 283.64C618.338 283.64 618.959 283.514 619.46 283.264C619.973 283.013 620.4 282.637 620.742 282.136C621.084 281.646 621.386 281.031 621.648 280.29L623.169 276.154ZM617.786 259.509L623.682 275.385L624.229 277.521L622.742 278.359L615.564 259.509H617.786ZM632.927 269.045V268.481C632.927 267.137 633.121 265.895 633.508 264.755C633.896 263.616 634.448 262.631 635.166 261.799C635.895 260.967 636.767 260.323 637.781 259.868C638.795 259.401 639.923 259.167 641.165 259.167C642.418 259.167 643.551 259.401 644.565 259.868C645.579 260.323 646.451 260.967 647.18 261.799C647.909 262.631 648.468 263.616 648.855 264.755C649.242 265.895 649.436 267.137 649.436 268.481V269.045C649.436 270.389 649.242 271.631 648.855 272.771C648.468 273.898 647.909 274.878 647.18 275.71C646.462 276.542 645.597 277.191 644.583 277.658C643.569 278.114 642.441 278.342 641.199 278.342C639.945 278.342 638.812 278.114 637.798 277.658C636.784 277.191 635.912 276.542 635.183 275.71C634.454 274.878 633.896 273.898 633.508 272.771C633.121 271.631 632.927 270.389 632.927 269.045ZM634.961 268.481V269.045C634.961 270.059 635.098 271.022 635.371 271.933C635.645 272.833 636.043 273.636 636.567 274.343C637.091 275.038 637.741 275.585 638.516 275.983C639.29 276.382 640.185 276.582 641.199 276.582C642.201 276.582 643.084 276.382 643.848 275.983C644.622 275.585 645.272 275.038 645.796 274.343C646.32 273.636 646.713 272.833 646.975 271.933C647.249 271.022 647.385 270.059 647.385 269.045V268.481C647.385 267.478 647.249 266.527 646.975 265.627C646.713 264.727 646.314 263.924 645.779 263.217C645.255 262.511 644.605 261.953 643.831 261.542C643.056 261.132 642.167 260.927 641.165 260.927C640.162 260.927 639.273 261.132 638.499 261.542C637.735 261.953 637.086 262.511 636.55 263.217C636.026 263.924 635.627 264.727 635.354 265.627C635.092 266.527 634.961 267.478 634.961 268.481ZM665.518 273.728V259.509H667.568V278H665.603L665.518 273.728ZM665.894 270.31L666.953 270.275C666.953 271.438 666.816 272.508 666.543 273.488C666.27 274.468 665.842 275.323 665.261 276.052C664.68 276.781 663.928 277.345 663.005 277.744C662.083 278.142 660.972 278.342 659.673 278.342C658.773 278.342 657.947 278.216 657.195 277.966C656.454 277.704 655.816 277.294 655.281 276.735C654.745 276.177 654.329 275.454 654.033 274.565C653.748 273.676 653.606 272.6 653.606 271.335V259.509H655.64V271.369C655.64 272.36 655.748 273.186 655.964 273.847C656.192 274.508 656.5 275.038 656.887 275.437C657.286 275.835 657.742 276.12 658.254 276.291C658.767 276.462 659.32 276.547 659.912 276.547C661.416 276.547 662.601 276.257 663.467 275.676C664.344 275.095 664.965 274.331 665.33 273.386C665.706 272.429 665.894 271.403 665.894 270.31ZM674.951 262.568V278H672.917V259.509H674.9L674.951 262.568ZM681.497 259.372L681.445 261.252C681.217 261.218 680.995 261.189 680.779 261.167C680.562 261.144 680.329 261.132 680.078 261.132C679.189 261.132 678.409 261.298 677.737 261.628C677.076 261.947 676.518 262.397 676.062 262.978C675.606 263.548 675.259 264.22 675.02 264.995C674.78 265.758 674.644 266.578 674.609 267.456L673.857 267.746C673.857 266.538 673.983 265.416 674.233 264.379C674.484 263.343 674.866 262.437 675.378 261.662C675.903 260.876 676.558 260.266 677.344 259.833C678.141 259.389 679.076 259.167 680.146 259.167C680.409 259.167 680.665 259.19 680.916 259.235C681.178 259.27 681.371 259.315 681.497 259.372ZM686.743 263.457V278H684.709V259.509H686.658L686.743 263.457ZM686.282 267.609L685.376 267.097C685.444 266.003 685.667 264.978 686.042 264.021C686.418 263.063 686.925 262.22 687.563 261.491C688.213 260.762 688.971 260.192 689.836 259.782C690.714 259.372 691.682 259.167 692.742 259.167C693.665 259.167 694.491 259.292 695.22 259.543C695.949 259.794 696.57 260.192 697.083 260.739C697.595 261.286 697.983 261.987 698.245 262.841C698.518 263.696 698.655 264.738 698.655 265.969V278H696.604V265.952C696.604 264.676 696.427 263.679 696.074 262.961C695.721 262.232 695.22 261.713 694.57 261.406C693.921 261.098 693.152 260.944 692.263 260.944C691.283 260.944 690.423 261.161 689.683 261.594C688.953 262.015 688.338 262.568 687.837 263.251C687.347 263.924 686.971 264.647 686.709 265.422C686.447 266.185 686.305 266.914 686.282 267.609ZM715.198 274.685V265.148C715.198 264.271 715.015 263.514 714.651 262.875C714.286 262.237 713.751 261.748 713.044 261.406C712.338 261.064 711.466 260.893 710.43 260.893C709.473 260.893 708.618 261.064 707.866 261.406C707.126 261.736 706.539 262.186 706.106 262.756C705.684 263.314 705.474 263.935 705.474 264.619L703.423 264.602C703.423 263.907 703.594 263.234 703.936 262.585C704.277 261.936 704.762 261.354 705.388 260.842C706.015 260.329 706.761 259.925 707.627 259.628C708.504 259.321 709.467 259.167 710.515 259.167C711.837 259.167 712.999 259.389 714.001 259.833C715.015 260.278 715.807 260.944 716.377 261.833C716.947 262.722 717.231 263.838 717.231 265.183V274.121C717.231 274.759 717.277 275.419 717.368 276.103C717.471 276.787 717.613 277.351 717.795 277.795V278H715.625C715.488 277.59 715.38 277.077 715.3 276.462C715.232 275.835 715.198 275.243 715.198 274.685ZM715.676 267.233L715.71 268.806H711.694C710.646 268.806 709.706 268.903 708.875 269.096C708.054 269.278 707.359 269.552 706.79 269.917C706.22 270.27 705.781 270.697 705.474 271.198C705.177 271.7 705.029 272.269 705.029 272.907C705.029 273.568 705.194 274.172 705.525 274.719C705.867 275.266 706.345 275.704 706.96 276.035C707.587 276.354 708.328 276.513 709.182 276.513C710.321 276.513 711.324 276.302 712.19 275.881C713.067 275.459 713.791 274.907 714.36 274.223C714.93 273.54 715.312 272.793 715.505 271.984L716.394 273.164C716.246 273.733 715.972 274.32 715.574 274.924C715.186 275.516 714.679 276.075 714.053 276.599C713.426 277.111 712.686 277.533 711.831 277.863C710.988 278.182 710.031 278.342 708.96 278.342C707.752 278.342 706.698 278.114 705.798 277.658C704.91 277.202 704.215 276.582 703.713 275.795C703.223 274.998 702.979 274.098 702.979 273.095C702.979 272.184 703.172 271.369 703.56 270.651C703.947 269.922 704.505 269.307 705.234 268.806C705.975 268.293 706.864 267.906 707.9 267.644C708.949 267.37 710.122 267.233 711.421 267.233H715.676ZM724.648 263.337V278H722.598V259.509H724.563L724.648 263.337ZM724.272 267.609L723.281 267.097C723.35 266.003 723.555 264.978 723.896 264.021C724.25 263.063 724.74 262.22 725.366 261.491C725.993 260.762 726.745 260.192 727.622 259.782C728.499 259.372 729.496 259.167 730.613 259.167C731.513 259.167 732.327 259.292 733.057 259.543C733.797 259.782 734.424 260.164 734.937 260.688C735.461 261.201 735.865 261.873 736.15 262.705C736.435 263.536 736.577 264.533 736.577 265.695V278H734.543V265.764C734.543 264.533 734.35 263.57 733.962 262.875C733.586 262.181 733.057 261.685 732.373 261.389C731.701 261.092 730.92 260.944 730.032 260.944C728.984 260.944 728.095 261.161 727.366 261.594C726.648 262.015 726.061 262.568 725.605 263.251C725.161 263.924 724.831 264.647 724.614 265.422C724.398 266.185 724.284 266.914 724.272 267.609ZM736.56 266.003L735.193 266.037C735.25 265.137 735.455 264.277 735.808 263.457C736.173 262.636 736.668 261.907 737.295 261.269C737.922 260.62 738.668 260.107 739.534 259.731C740.411 259.355 741.396 259.167 742.49 259.167C743.447 259.167 744.302 259.298 745.054 259.56C745.806 259.811 746.438 260.215 746.951 260.773C747.475 261.32 747.874 262.021 748.147 262.875C748.42 263.73 748.557 264.755 748.557 265.952V278H746.506V265.935C746.506 264.624 746.313 263.61 745.925 262.893C745.549 262.163 745.025 261.656 744.353 261.372C743.681 261.087 742.895 260.944 741.995 260.944C741.106 260.956 740.326 261.121 739.653 261.44C738.981 261.748 738.417 262.158 737.961 262.67C737.517 263.172 737.175 263.713 736.936 264.294C736.708 264.875 736.583 265.445 736.56 266.003ZM760.896 278.342C759.688 278.342 758.577 278.12 757.563 277.675C756.561 277.231 755.684 276.604 754.932 275.795C754.191 274.986 753.616 274.029 753.206 272.924C752.807 271.808 752.607 270.589 752.607 269.267V268.532C752.607 267.108 752.818 265.821 753.24 264.67C753.661 263.519 754.242 262.534 754.983 261.713C755.723 260.893 756.567 260.266 757.512 259.833C758.469 259.389 759.472 259.167 760.52 259.167C761.694 259.167 762.736 259.378 763.647 259.799C764.559 260.209 765.322 260.796 765.938 261.56C766.564 262.312 767.037 263.206 767.356 264.243C767.675 265.268 767.834 266.402 767.834 267.644V268.891H753.838V267.148H765.801V266.909C765.778 265.872 765.567 264.903 765.168 264.003C764.781 263.092 764.2 262.351 763.425 261.782C762.651 261.212 761.682 260.927 760.52 260.927C759.654 260.927 758.857 261.11 758.127 261.474C757.41 261.839 756.789 262.363 756.265 263.046C755.752 263.719 755.353 264.522 755.068 265.456C754.795 266.379 754.658 267.404 754.658 268.532V269.267C754.658 270.292 754.806 271.25 755.103 272.138C755.41 273.015 755.843 273.79 756.401 274.462C756.971 275.135 757.643 275.659 758.418 276.035C759.193 276.411 760.047 276.599 760.981 276.599C762.075 276.599 763.044 276.399 763.887 276C764.73 275.59 765.487 274.947 766.16 274.069L767.441 275.061C767.043 275.653 766.541 276.2 765.938 276.701C765.345 277.202 764.633 277.601 763.801 277.897C762.97 278.194 762.001 278.342 760.896 278.342Z" fill="#84E575"/>
<path d="M159.057 260.801L153.173 277H150.769L157.544 259.227H159.094L159.057 260.801ZM163.989 277L158.093 260.801L158.056 259.227H159.607L166.406 277H163.989ZM163.684 270.42V272.349H153.698V270.42H163.684ZM175.366 260.801L169.482 277H167.077L173.852 259.227H175.402L175.366 260.801ZM180.297 277L174.401 260.801L174.365 259.227H175.915L182.714 277H180.297ZM179.992 270.42V272.349H170.007V270.42H179.992Z" fill="white"/>
<path d="M196.077 138.792H196.356C197.528 138.792 198.533 138.65 199.373 138.367C200.223 138.074 200.921 137.654 201.468 137.107C202.015 136.561 202.42 135.892 202.684 135.101C202.947 134.3 203.079 133.392 203.079 132.376V128.333C203.079 127.562 203.001 126.883 202.845 126.297C202.698 125.711 202.484 125.228 202.2 124.847C201.927 124.456 201.605 124.163 201.234 123.968C200.872 123.772 200.472 123.675 200.032 123.675C199.564 123.675 199.149 123.792 198.787 124.026C198.426 124.251 198.118 124.559 197.864 124.949C197.62 125.34 197.43 125.789 197.293 126.297C197.166 126.795 197.103 127.317 197.103 127.864C197.103 128.411 197.166 128.934 197.293 129.432C197.42 129.92 197.611 130.354 197.864 130.735C198.118 131.106 198.436 131.404 198.817 131.629C199.197 131.844 199.647 131.951 200.164 131.951C200.662 131.951 201.107 131.858 201.497 131.673C201.898 131.478 202.235 131.224 202.508 130.911C202.791 130.599 203.006 130.252 203.153 129.871C203.309 129.49 203.387 129.104 203.387 128.714L204.779 129.476C204.779 130.159 204.632 130.833 204.339 131.497C204.046 132.161 203.636 132.767 203.109 133.313C202.591 133.851 201.99 134.28 201.307 134.603C200.623 134.925 199.891 135.086 199.11 135.086C198.113 135.086 197.23 134.905 196.458 134.544C195.687 134.173 195.032 133.665 194.495 133.021C193.968 132.366 193.568 131.604 193.294 130.735C193.021 129.866 192.884 128.924 192.884 127.908C192.884 126.873 193.05 125.901 193.382 124.993C193.724 124.085 194.207 123.284 194.832 122.591C195.467 121.897 196.224 121.355 197.103 120.965C197.991 120.564 198.978 120.364 200.062 120.364C201.146 120.364 202.132 120.574 203.021 120.994C203.909 121.414 204.671 122.01 205.306 122.781C205.941 123.543 206.429 124.456 206.771 125.521C207.122 126.585 207.298 127.767 207.298 129.065V130.53C207.298 131.917 207.147 133.206 206.844 134.397C206.551 135.589 206.107 136.668 205.511 137.635C204.925 138.592 204.193 139.412 203.314 140.096C202.445 140.779 201.434 141.302 200.281 141.663C199.129 142.024 197.84 142.205 196.414 142.205H196.077V138.792ZM210.653 139.964C210.653 139.339 210.867 138.816 211.297 138.396C211.737 137.977 212.318 137.767 213.04 137.767C213.763 137.767 214.339 137.977 214.769 138.396C215.208 138.816 215.428 139.339 215.428 139.964C215.428 140.589 215.208 141.111 214.769 141.531C214.339 141.951 213.763 142.161 213.04 142.161C212.318 142.161 211.737 141.951 211.297 141.531C210.867 141.111 210.653 140.589 210.653 139.964ZM210.653 127.879C210.653 127.254 210.867 126.731 211.297 126.312C211.737 125.892 212.318 125.682 213.04 125.682C213.763 125.682 214.339 125.892 214.769 126.312C215.208 126.731 215.428 127.254 215.428 127.879C215.428 128.504 215.208 129.026 214.769 129.446C214.339 129.866 213.763 130.076 213.04 130.076C212.318 130.076 211.737 129.866 211.297 129.446C210.867 129.026 210.653 128.504 210.653 127.879ZM233.724 134.031V137.342H218.358L218.153 134.778L227.044 120.672H230.399L226.766 126.751L222.342 134.031H233.724ZM231.307 120.672V142H227.088V120.672H231.307ZM246.292 120.628V142H242.073V125.491L237.005 127.103V123.777L245.838 120.628H246.292Z" fill="white"/>
<path fill-rule="evenodd" clip-rule="evenodd" d="M429.155 262.829V260.029C429.156 257.328 427.672 254.832 425.262 253.482C422.853 252.131 419.884 252.131 417.475 253.482C415.065 254.833 413.582 257.329 413.583 260.03V262.829H411.023V269.488C411.023 275.034 415.654 279.529 421.367 279.529C427.08 279.529 431.712 275.034 431.712 269.488V262.829H429.155ZM422.185 272.229V274.701H420.55V272.231C419.112 271.836 418.195 270.471 418.4 269.034C418.606 267.597 419.872 266.527 421.367 266.527C422.861 266.527 424.127 267.597 424.333 269.034C424.539 270.471 423.621 271.836 422.183 272.231L422.185 272.229ZM427.521 262.829H415.215V260.029C415.215 256.731 417.969 254.057 421.367 254.057C424.765 254.057 427.52 256.731 427.52 260.029L427.521 262.829Z" fill="#80E770"/>
</svg>
